<svg width="1159" height="95" viewBox="0 0 1159 95" fill="none" xmlns="http://www.w3.org/2000/svg">
<g clip-path="url(#clip0_4021_153)">
<path fill-rule="evenodd" clip-rule="evenodd" d="M-486 10C-486 4.47715 -481.523 0 -476 0H1424C1429.52 0 1434 4.47715 1434 10V94.99C1434 94.9955 1434 95 1433.99 95V95C1433.98 95 1433.98 94.9957 1433.98 94.9903C1433.45 81.6513 1422.47 71 1409 71H1150.52C1145.46 71 1141.3 67.1673 1139.81 62.3261C1133.54 41.8723 1114.51 27 1092 27H65C42.492 27 23.4576 41.8723 17.1878 62.3261C15.7038 67.1673 11.5445 71 6.48097 71H-461C-474.469 71 -485.45 81.6513 -485.98 94.9903C-485.98 94.9957 -485.985 95 -485.99 95V95C-485.996 95 -486 94.9955 -486 94.99V10Z" fill="#7027E2"/>
</g>
<defs>
<clipPath id="clip0_4021_153">
<rect width="1159" height="95" fill="white"/>
</clipPath>
</defs>
</svg>
