<svg width="68" height="71" viewBox="0 0 68 71" fill="none" xmlns="http://www.w3.org/2000/svg">
<g clip-path="url(#clip0_4021_153)">
<path fill-rule="evenodd" clip-rule="evenodd" d="M-1573 10C-1573 4.47715 -1568.52 0 -1563 0H337C342.523 0 347 4.47715 347 10V94.99C347 94.9955 346.996 95 346.99 95V95C346.985 95 346.98 94.9957 346.98 94.9903C346.45 81.6513 335.469 71 322 71H63.519C58.4555 71 54.2962 67.1673 52.8122 62.3261C46.5424 41.8723 27.508 27 5 27H-1022C-1044.51 27 -1063.54 41.8723 -1069.81 62.3261C-1071.3 67.1673 -1075.46 71 -1080.52 71H-1548C-1561.47 71 -1572.45 81.6513 -1572.98 94.9903C-1572.98 94.9957 -1572.98 95 -1572.99 95V95C-1573 95 -1573 94.9955 -1573 94.99V10Z" fill="#7027E2"/>
</g>
<defs>
<clipPath id="clip0_4021_153">
<rect width="68" height="71" fill="white" transform="matrix(-1 0 0 1 68 0)"/>
</clipPath>
</defs>
</svg>
