<svg width="297" height="22" viewBox="0 0 297 22" fill="none" xmlns="http://www.w3.org/2000/svg">
<path d="M33.1818 0.450128V21.5499H27.3074V2.53197L28.6195 2.67263L19.9719 21.5499H13.7099L5.03251 2.7289L6.37437 2.58824V21.5499H0.5V0.450128H10.0421L18.0635 18.5678H15.6779L23.6397 0.450128H33.1818ZM43.2405 12.1253C43.2405 13.0818 43.4295 13.9164 43.807 14.6292C44.2048 15.3231 44.7814 15.8576 45.5365 16.2327C46.3118 16.6079 47.2564 16.7954 48.3694 16.7954C49.5025 16.7954 50.4471 16.6079 51.2022 16.2327C51.9578 15.8576 52.5243 15.3231 52.9019 14.6292C53.2799 13.9164 53.4684 13.0818 53.4684 12.1253V0.450128H59.6708V12.4066C59.6708 14.3384 59.1937 16.0264 58.2395 17.4706C57.3055 18.896 55.9934 20.0119 54.3034 20.8184C52.6138 21.6061 50.6356 22 48.3694 22C46.1233 22 44.1451 21.6061 42.4354 20.8184C40.7458 20.0119 39.4238 18.896 38.4695 17.4706C37.5352 16.0264 37.068 14.3384 37.068 12.4066V0.450128H43.2405V12.1253ZM62.5316 14.6292H68.8235C68.9225 15.2106 69.2111 15.717 69.6882 16.1483C70.1653 16.5797 70.8012 16.9173 71.5966 17.1611C72.4114 17.3862 73.3656 17.4987 74.4593 17.4987C75.97 17.4987 77.1627 17.3205 78.0376 16.9642C78.912 16.5891 79.3496 16.0452 79.3496 15.3325C79.3496 14.7886 79.101 14.3666 78.6041 14.0665C78.1068 13.7664 77.1526 13.5507 75.7415 13.4194L71.5668 13.0537C68.4854 12.7911 66.2489 12.1347 64.8575 11.0844C63.4657 10.0153 62.7702 8.58056 62.7702 6.78005C62.7702 5.31714 63.2175 4.07928 64.112 3.0665C65.0263 2.05371 66.2985 1.29412 67.9289 0.787724C69.5786 0.26259 71.4971 0 73.684 0C75.831 0 77.7394 0.290723 79.4093 0.872123C81.0791 1.43478 82.4008 2.24125 83.3752 3.29156C84.3689 4.34187 84.9056 5.56094 84.9854 6.94885H78.7234C78.6436 6.44246 78.3853 6.01107 77.9481 5.65473C77.5306 5.27961 76.954 4.99828 76.2186 4.81074C75.4828 4.60442 74.5983 4.50128 73.5647 4.50128C72.1728 4.50128 71.0695 4.67947 70.2548 5.03581C69.4396 5.3734 69.0322 5.8798 69.0322 6.55499C69.0322 7.04264 69.2707 7.4365 69.7479 7.73657C70.2447 8.03664 71.1292 8.24297 72.4018 8.3555L76.8448 8.77749C78.9716 8.96503 80.6713 9.29328 81.9439 9.76215C83.216 10.2123 84.1404 10.8406 84.7171 11.6471C85.2933 12.4535 85.5818 13.457 85.5818 14.6573C85.5818 16.1389 85.1143 17.4331 84.1803 18.5396C83.2458 19.6274 81.9338 20.4808 80.2442 21.0997C78.5541 21.6999 76.5861 22 74.34 22C72.0338 22 69.996 21.6999 68.2271 21.0997C66.4774 20.4808 65.1057 19.6181 64.112 18.5115C63.1179 17.3862 62.5913 16.0921 62.5316 14.6292ZM88.6761 0.450128H94.8487V21.5499H88.6761V0.450128ZM123.853 12.7161C123.635 14.5729 122.959 16.2046 121.825 17.6113C120.692 18.9992 119.201 20.0776 117.353 20.8465C115.524 21.6155 113.416 22 111.031 22C108.427 22 106.151 21.5405 104.202 20.6215C102.254 19.7025 100.734 18.4177 99.6399 16.7673C98.5665 15.1168 98.0297 13.1944 98.0297 11C98.0297 8.80563 98.5665 6.88319 99.6399 5.23274C100.734 3.58228 102.254 2.29751 104.202 1.37852C106.151 0.459521 108.427 0 111.031 0C113.416 0 115.524 0.38447 117.353 1.15345C119.201 1.92244 120.692 3.01023 121.825 4.41688C122.959 5.80479 123.635 7.42711 123.853 9.28389H117.651C117.452 8.38363 117.064 7.62404 116.488 7.00512C115.912 6.36745 115.156 5.8798 114.222 5.5422C113.307 5.2046 112.244 5.03581 111.031 5.03581C109.639 5.03581 108.437 5.27961 107.423 5.76726C106.409 6.23613 105.634 6.92072 105.097 7.82097C104.56 8.70249 104.292 9.76215 104.292 11C104.292 12.2379 104.56 13.3069 105.097 14.2072C105.634 15.0887 106.409 15.7732 107.423 16.2609C108.437 16.7297 109.639 16.9642 111.031 16.9642C112.244 16.9642 113.307 16.8048 114.222 16.4859C115.156 16.1671 115.912 15.6888 116.488 15.0512C117.064 14.4135 117.452 13.6351 117.651 12.7161H123.853ZM157.926 0.450128V21.5499H151.753V2.9821L154.526 5.6266H137.649L140.422 2.9821V21.5499H134.249V0.450128H157.926ZM174.642 0.450128C176.511 0.450128 178.121 0.750199 179.473 1.35038C180.844 1.95057 181.888 2.80391 182.604 3.91049C183.319 4.99828 183.677 6.27366 183.677 7.73657C183.677 9.18075 183.319 10.4561 182.604 11.5627C181.888 12.6505 180.844 13.4944 179.473 14.0946C178.121 14.6948 176.511 14.9949 174.642 14.9949H164.951V10.3248H174.254C175.248 10.3248 176.024 10.0997 176.58 9.64962C177.137 9.18075 177.415 8.54304 177.415 7.73657C177.415 6.91132 177.137 6.27366 176.58 5.82353C176.024 5.35466 175.248 5.12021 174.254 5.12021H165.488L168.261 2.41944V21.5499H162.088V0.450128H174.642ZM198.66 22C196.016 22 193.69 21.5405 191.682 20.6215C189.695 19.7025 188.144 18.4177 187.031 16.7673C185.937 15.1168 185.391 13.1944 185.391 11C185.391 8.80563 185.937 6.88319 187.031 5.23274C188.144 3.58228 189.695 2.29751 191.682 1.37852C193.69 0.459521 196.016 0 198.66 0C201.324 0 203.65 0.459521 205.638 1.37852C207.626 2.29751 209.176 3.58228 210.29 5.23274C211.403 6.88319 211.959 8.80563 211.959 11C211.959 13.1944 211.403 15.1168 210.29 16.7673C209.176 18.4177 207.626 19.7025 205.638 20.6215C203.65 21.5405 201.324 22 198.66 22ZM198.66 16.7954C200.111 16.7954 201.364 16.5609 202.417 16.0921C203.471 15.6232 204.276 14.9574 204.833 14.0946C205.409 13.2319 205.697 12.2003 205.697 11C205.697 9.79967 205.409 8.7681 204.833 7.90537C204.276 7.04264 203.471 6.3768 202.417 5.90793C201.364 5.43906 200.111 5.2046 198.66 5.2046C197.229 5.2046 195.987 5.43906 194.933 5.90793C193.879 6.3768 193.064 7.04264 192.488 7.90537C191.911 8.7681 191.623 9.79967 191.623 11C191.623 12.2003 191.911 13.2319 192.488 14.0946C193.064 14.9574 193.879 15.6232 194.933 16.0921C195.987 16.5609 197.229 16.7954 198.66 16.7954ZM227.699 0.450128C229.568 0.450128 231.178 0.750199 232.53 1.35038C233.902 1.95057 234.945 2.80391 235.661 3.91049C236.377 4.99828 236.735 6.27366 236.735 7.73657C236.735 9.18075 236.377 10.4561 235.661 11.5627C234.945 12.6505 233.902 13.4944 232.53 14.0946C231.178 14.6948 229.568 14.9949 227.699 14.9949H218.008V10.3248H227.312C228.305 10.3248 229.081 10.0997 229.638 9.64962C230.194 9.18075 230.473 8.54304 230.473 7.73657C230.473 6.91132 230.194 6.27366 229.638 5.82353C229.081 5.35466 228.305 5.12021 227.312 5.12021H218.545L221.318 2.41944V21.5499H215.146V0.450128H227.699ZM239.432 21.5499V0.450128H245.604V19.5806L242.831 16.9642H251.538C252.552 16.9642 253.337 16.7204 253.894 16.2327C254.471 15.7451 254.759 15.0887 254.759 14.2634C254.759 13.4194 254.471 12.763 253.894 12.2941C253.337 11.8252 252.552 11.5908 251.538 11.5908H242.294V6.97698H251.926C253.815 6.97698 255.435 7.28644 256.786 7.90537C258.158 8.50556 259.202 9.34955 259.917 10.4373C260.653 11.5251 261.021 12.8005 261.021 14.2634C261.021 15.7263 260.653 17.0111 259.917 18.1176C259.202 19.2054 258.158 20.0494 256.786 20.6496C255.435 21.2498 253.815 21.5499 251.926 21.5499H239.432ZM262.87 0.450128H269.042V21.5499H262.87V0.450128ZM288.359 11.2251L288.866 10.1279C290.596 10.1654 292.017 10.4186 293.13 10.8875C294.264 11.3376 295.109 11.9753 295.665 12.8005C296.222 13.607 296.5 14.5448 296.5 15.6138C296.5 16.7579 296.222 17.7801 295.665 18.6803C295.109 19.5618 294.274 20.2651 293.16 20.7903C292.067 21.2967 290.695 21.5499 289.045 21.5499H272.525L274.255 10.7187L272.525 0.450128H288.449C290.516 0.450128 292.127 0.909648 293.28 1.82864C294.432 2.7289 295.009 3.98549 295.009 5.59847C295.009 6.47998 294.79 7.32397 294.353 8.13043C293.916 8.9369 293.21 9.62148 292.236 10.1841C291.282 10.7281 289.989 11.075 288.359 11.2251ZM278.638 20.1995L276.253 17.4706H287.375C288.27 17.4706 288.966 17.2643 289.463 16.8517C289.959 16.4391 290.208 15.867 290.208 15.1355C290.208 14.4041 289.94 13.8227 289.403 13.3913C288.866 12.9412 288.071 12.7161 287.018 12.7161H277.833V8.72123H286.183C286.898 8.72123 287.495 8.5243 287.972 8.13043C288.469 7.71783 288.717 7.16452 288.717 6.47059C288.717 5.90793 288.508 5.44841 288.091 5.09207C287.674 4.71695 287.077 4.52941 286.302 4.52941H276.283L278.638 1.80051L280.159 10.7187L278.638 20.1995Z" fill="white"/>
</svg>
