<svg width="30" height="30" viewBox="0 0 30 30" fill="none" xmlns="http://www.w3.org/2000/svg">
<path d="M15 0.9375C7.2338 0.9375 0.9375 7.23509 0.9375 15.0029C0.9375 17.8449 1.78241 20.4959 3.23495 22.707L1.42361 28.8425L7.79514 27.0771C9.90162 28.339 12.3669 29.0625 15 29.0625C22.7662 29.0625 29.0625 22.7649 29.0625 14.9971C29.0625 7.23509 22.7662 0.9375 15 0.9375Z" fill="#7027E2"/>
<path d="M11.5573 8.59074C11.2389 7.94404 10.7504 8.0013 10.257 8.0013C9.3751 8.0013 8 9.06943 8 11.0573C8 12.6865 8.70997 14.4699 11.1024 17.1377C13.4112 19.7124 16.4448 21.0442 18.9633 20.9989C21.4818 20.9535 22 18.7621 22 18.022C22 17.694 21.7987 17.5303 21.66 17.4858C20.8018 17.0694 19.2189 16.2933 18.8587 16.1475C18.4985 16.0017 18.3105 16.1989 18.1936 16.3062C17.867 16.6209 17.2195 17.5485 16.9979 17.7571C16.7762 17.9657 16.4457 17.8602 16.3082 17.7813C15.8021 17.5759 14.4298 16.9587 13.336 15.8866C11.9833 14.5606 11.9039 14.1044 11.649 13.6983C11.4451 13.3734 11.5948 13.1741 11.6694 13.087C11.9609 12.747 12.3633 12.222 12.5438 11.9611C12.7243 11.7002 12.581 11.304 12.495 11.0573C12.1253 9.99629 11.812 9.10809 11.5573 8.59074Z" fill="white"/>
</svg>
